<svg xmlns="http://www.w3.org/2000/svg" xmlns:xlink="http://www.w3.org/1999/xlink" width="60px" height="60px" viewBox="0 0 60 60">
  <g id="MPkAyf6KH4RMDvPqo5InL">
<g style="">
		<g id="Layer_2-2">
<path style="stroke: rgb(193,193,193); stroke-width: 0; stroke-dasharray: none; stroke-linecap: butt; stroke-dashoffset: 0; stroke-linejoin: miter; stroke-miterlimit: 4; fill: rgb(255,172,83); fill-rule: nonzero; opacity: 1;" transform="matrix(-0.050125 0.049865 0.049865 0.050125 29.815197 29.921692) matrix(1 0 0 1 0 0)  translate(-137.130492, -141.43495)" d="M 179.80 114.00 C 178.38 114.48 177.04 115.16 175.80 116.00 C 171.50 119.80 167.40 123.80 163.10 127.80 C 164.10 128.50 164.70 129.10 165.70 129.90 C 160.92 135.56 155.48 140.63 149.50 145.00 C 148.14 146.03 146.87 147.16 145.70 148.40 C 142.40 151.90 138.70 155.10 135.20 158.40 C 134.54 159.00 133.69 159.35 132.80 159.40 C 128.90 158.50 127.20 160.80 126.30 164.00 C 125.40 167.20 125.00 168.60 121.60 167.60 C 121.10 167.40 120.20 168.50 119.50 169.10 C 117.59 171.00 115.55 172.77 113.40 174.40 C 110.20 176.40 108.70 179.70 106.50 182.40 C 106.20 182.80 107.00 183.90 107.40 185.00 L 112.60 182.90 C 121.00 179.50 129.40 176.00 137.80 172.90 C 146.20 169.80 151.90 167.30 159.30 166.00 C 162.30 165.40 165.10 164.40 168.10 166.20 C 169.00 166.70 170.40 166.30 171.50 166.10 C 175.60 165.30 179.70 164.10 183.70 166.70 C 184.50 167.10 186.00 166.30 187.50 166.00 C 188.00 168.50 188.40 170.80 188.90 173.10 C 185.60 176.90 185.60 176.90 190.90 179.00 C 187.10 181.10 187.60 186.60 183.10 187.90 C 184.50 193.00 179.70 192.90 177.40 194.70 C 162.10 206.30 144.80 214.30 127.10 221.40 C 109.40 228.50 95.80 237.00 81.70 247.50 C 72.00 254.70 62.30 261.90 52.50 269.00 C 48.60 271.80 43.90 273.40 40.50 277.00 C 40.20 277.30 39.30 277.70 38.90 277.50 C 33.70 276.10 29.50 279.20 25.10 280.70 C 19.98 282.40 14.58 283.11 9.20 282.80 C 7.70 280.10 4.50 278.00 6.00 274.20 C 5.05 271.98 3.91 269.83 2.60 267.80 C -0.60 263.70 -0.60 259.60 1.40 255.10 C 3.40 250.60 6.10 244.60 8.60 239.50 C 11.10 234.40 14.10 228.70 16.90 223.40 C 21.60 214.60 26.10 205.70 31.10 197.10 C 39.44 182.43 46.60 167.11 52.50 151.30 C 54.20 146.80 56.70 142.60 57.80 137.80 C 58.30 135.40 60.60 133.40 62.40 130.70 C 63.02 131.49 63.59 132.33 64.10 133.20 C 65.10 135.90 65.70 136.50 67.60 136.10 C 69.50 135.70 69.90 135.20 71.00 135.10 C 72.30 135.03 73.61 135.09 74.90 135.30 C 75.00 137.60 75.10 139.70 75.30 141.70 C 75.50 143.70 76.50 145.30 76.30 147.00 C 75.95 149.65 75.25 152.24 74.20 154.70 C 73.12 157.41 72.95 160.39 73.70 163.20 C 77.60 161.10 80.00 158.10 82.40 155.20 C 90.75 145.26 99.77 135.91 109.40 127.20 C 113.80 123.10 117.60 118.40 121.90 114.20 C 131.90 104.10 141.90 94.00 152.20 84.20 C 162.50 74.40 171.90 66.40 181.70 57.40 C 184.60 54.80 187.20 51.80 190.10 49.30 C 196.50 43.70 203.10 38.40 209.60 32.90 C 211.60 31.20 214.00 29.70 215.80 27.80 C 219.80 23.50 224.50 20.30 229.30 17.20 C 232.10 15.40 234.80 13.40 237.70 11.70 C 243.40 8.30 249.00 4.90 255.00 2.00 C 257.50 0.70 260.70 0.60 263.60 0.00 C 264.31 0.58 264.98 1.22 265.60 1.90 C 266.40 2.70 267.10 3.70 267.80 4.50 C 268.50 5.30 264.70 8.20 267.70 10.30 L 272.00 9.20 C 272.40 10.80 273.20 12.40 273.30 14.10 C 273.40 15.80 272.60 16.90 272.30 18.30 C 272.00 19.70 275.10 19.70 274.00 21.70 C 272.90 23.70 272.60 25.00 271.70 26.50 C 270.80 28.00 269.60 28.60 268.60 29.80 C 261.30 38.20 253.00 45.60 244.60 53.00 C 242.90 54.40 240.70 55.80 241.90 58.90 C 242.20 59.50 240.90 61.20 240.00 61.60 C 236.90 63.00 235.00 65.50 233.00 68.10 C 231.63 69.69 230.12 71.16 228.50 72.50 L 215.10 84.70 C 207.70 91.40 200.50 98.20 193.00 104.90 C 191.80 106.00 189.80 106.30 188.30 107.10 C 186.80 107.90 186.40 108.50 185.40 109.10 C 184.40 109.70 180.90 111.40 179.80 114.00 Z" stroke-linecap="round"/>
</g>
</g>
</g>

  </svg>